<svg xmlns="http://www.w3.org/2000/svg" viewBox="0 0 100.51 87.02"><defs><style>.cls-1,.cls-3{fill:none;stroke-miterlimit:10;}.cls-1{stroke:#960066;stroke-width:2px;}.cls-2{fill:#960066;}.cls-3{stroke:#333;stroke-width:1.01px;opacity:0;}</style></defs><title>angel_sagol</title><g id="Layer_2" data-name="Layer 2"><g id="Layer_1-2" data-name="Layer 1"><circle class="cls-1" cx="50.06" cy="44.81" r="30.2"/><path class="cls-2" d="M80.09,41.84c0-.14.31,1.4,1,1.59,3.17-.13,5.61-1,7.25-2.72a7.44,7.44,0,0,0,2-4.44,9.2,9.2,0,0,0,4.31-5.1,5.37,5.37,0,0,0-.31-4.3,9.23,9.23,0,0,0,3.15-8.23,1,1,0,0,0-1-.81c-4.44-.12-15,.54-20.42,10.17ZM92.78,30.57a7.64,7.64,0,0,1-6.34,5,1,1,0,0,0,.16,2h.16a11.38,11.38,0,0,0,1.4-.33,5.29,5.29,0,0,1-1.28,2.14c-1.28,1.29-3.26,2-5.89,2.09a31.15,31.15,0,0,0-3.3-11.78C81.78,21,91,19.83,95.63,19.81c0,1.71-.59,5.7-6.39,7.56a1,1,0,0,0,.61,1.9A14.54,14.54,0,0,0,92.73,28,3.58,3.58,0,0,1,92.78,30.57Z"/><path class="cls-2" d="M91.08,22.64a.75.75,0,0,0-.95-.47,17.86,17.86,0,0,0-9.94,8.12.75.75,0,0,0,.33,1,.77.77,0,0,0,.34.08.75.75,0,0,0,.67-.41,16.64,16.64,0,0,1,9.08-7.37A.75.75,0,0,0,91.08,22.64Z"/><path class="cls-2" d="M24.35,28C19,18.37,8.37,17.7,3.93,17.82a1,1,0,0,0-1,.81,9.23,9.23,0,0,0,3.15,8.23,5.37,5.37,0,0,0-.31,4.3,9.2,9.2,0,0,0,4.31,5.1,7.44,7.44,0,0,0,2,4.44c1.64,1.69,4.08,2.59,7.25,2.72.68-.18,1-1.73,1-1.59ZM7.77,28a14.54,14.54,0,0,0,2.88,1.26,1,1,0,0,0,.61-1.9c-5.8-1.86-6.41-5.84-6.39-7.56,4.64,0,13.85,1.23,17.94,9.84a31.15,31.15,0,0,0-3.3,11.78c-2.63-.1-4.61-.8-5.89-2.09a5.29,5.29,0,0,1-1.28-2.14,11.38,11.38,0,0,0,1.4.33h.16a1,1,0,0,0,.16-2,7.64,7.64,0,0,1-6.34-5A3.58,3.58,0,0,1,7.77,28Z"/><path class="cls-2" d="M9.43,22.64a.75.75,0,0,1,.95-.47,17.86,17.86,0,0,1,9.94,8.12.75.75,0,0,1-.33,1,.77.77,0,0,1-.34.08A.75.75,0,0,1,19,31,16.64,16.64,0,0,0,9.9,23.59.75.75,0,0,1,9.43,22.64Z"/><circle class="cls-2" cx="31.6" cy="38.89" r="2.35"/><circle class="cls-2" cx="68.9" cy="38.89" r="2.35"/><path class="cls-2" d="M54.51,46.13a.75.75,0,0,0-.75.75c0,2.74-1.57,5-3.5,5s-3.5-2.23-3.5-5a.75.75,0,0,0-1.5,0c0,3.56,2.24,6.46,5,6.46s5-2.9,5-6.46A.75.75,0,0,0,54.51,46.13Z"/><ellipse class="cls-1" cx="50.88" cy="12.31" rx="18.65" ry="6.72"/><rect class="cls-3" x="0.5" y="0.5" width="99.5" height="86.02"/></g></g></svg>