<svg xmlns="http://www.w3.org/2000/svg" viewBox="0 0 100.51 87.02"><defs><style>.cls-1{fill:#333;}.cls-1,.cls-4{opacity:0;}.cls-2,.cls-4{fill:none;stroke-miterlimit:10;}.cls-2{stroke:#fff;stroke-width:2px;}.cls-3{fill:#fff;}.cls-4{stroke:#333;stroke-width:1.01px;}</style></defs><title>devil</title><g id="Layer_2" data-name="Layer 2"><g id="Layer_1-2" data-name="Layer 1"><circle class="cls-1" cx="50.25" cy="44.85" r="38.62"/><circle class="cls-2" cx="50.23" cy="44.85" r="30.2"/><path class="cls-3" d="M32.38,19.82c-8.53-.75-10.62-7.06-8.79-10.61,0,0-12,8.91,1.47,19.06A27.27,27.27,0,0,0,32.38,19.82Z"/><path class="cls-3" d="M75.44,28.26C88.94,18.11,76.91,9.2,76.91,9.2c1.83,3.55-.26,9.87-8.79,10.61A27.27,27.27,0,0,0,75.44,28.26Z"/><path class="cls-3" d="M57.36,47.53l-.06-.68H43.71l-.06.68c0,.48-.08,1-.08,1.48a14.58,14.58,0,0,0,1.62,6.88h0l.17.3h0l.82,1.39.05-.15a5.16,5.16,0,0,0,8.54,0l.05.15.82-1.39h0l.17-.29v0A14.55,14.55,0,0,0,57.44,49C57.44,48.51,57.4,48,57.36,47.53ZM50.5,58.21a4.57,4.57,0,0,1-3.65-2.44l.06-.14.14-.25.17-.26.17-.22.21-.23.19-.19.25-.2.21-.16.28-.17.23-.12.32-.13.23-.09.38-.09.2,0a3.89,3.89,0,0,1,1.22,0l.2,0,.39.09.23.09.32.13.23.12.28.17.21.16.25.2.19.19.21.24.17.22.17.27.13.25.06.14A4.53,4.53,0,0,1,50.5,58.21Z"/><path class="cls-3" d="M29.42,45.94a2.35,2.35,0,0,0,4.69.14l-3.25-2.3A2.35,2.35,0,0,0,29.42,45.94Z"/><path class="cls-3" d="M71.41,45.79A2.35,2.35,0,0,0,70,43.62l-3.25,2.3a2.35,2.35,0,0,0,4.69-.14Z"/><path class="cls-3" d="M36.34,43.92a4.61,4.61,0,0,1-4.63-4.21.75.75,0,1,0-1.5,0,6.09,6.09,0,0,0,6.13,5.71.75.75,0,0,0,0-1.5Z"/><path class="cls-3" d="M70.74,39.71a.75.75,0,1,0-1.5,0,5,5,0,0,1-4.63,4.21.75.75,0,0,0,0,1.5A6.09,6.09,0,0,0,70.74,39.71Z"/><rect class="cls-4" x="0.5" y="0.5" width="99.5" height="86.02"/></g></g></svg>