<?xml version="1.0" encoding="utf-8"?>
<!-- Generator: Adobe Illustrator 21.0.2, SVG Export Plug-In . SVG Version: 6.00 Build 0)  -->
<svg version="1.1" id="Layer_1" xmlns="http://www.w3.org/2000/svg" xmlns:xlink="http://www.w3.org/1999/xlink" x="0px" y="0px"
	 viewBox="0 0 44.5 43.5" style="enable-background:new 0 0 44.5 43.5;" xml:space="preserve" width="44.5" height="43.5">
<style type="text/css">
	.st0{fill:#FFFFFF;}
</style>
<g>
	<path class="st0" d="M22.4,4.4c-9.9,0-17.9,8-17.9,17.9s8,17.9,17.9,17.9s17.9-8,17.9-17.9S32.3,4.4,22.4,4.4L22.4,4.4z M22.4,37
		c-8.1,0-14.6-6.6-14.6-14.6S14.4,7.7,22.4,7.7s14.6,6.6,14.6,14.6S30.5,37,22.4,37L22.4,37z M22.4,37"/>
	<path class="st0" d="M22.4,29.4c-1.2,0-2.2,1-2.2,2.2c0,1.2,1,2.2,2.2,2.2c1.2,0,2.2-1,2.2-2.2C24.6,30.3,23.6,29.4,22.4,29.4
		L22.4,29.4z M22.4,29.4"/>
	<path class="st0" d="M22.4,10.9c-3.3,0-6,2.7-6,6c0,0.9,0.7,1.6,1.6,1.6c0.9,0,1.6-0.7,1.6-1.6c0-1.5,1.2-2.7,2.7-2.7
		c1.5,0,2.7,1.2,2.7,2.7c0,1.5-1.2,2.7-2.7,2.7c-0.9,0-1.6,0.7-1.6,1.6v3.2c0,0.9,0.7,1.6,1.6,1.6c0.9,0,1.6-0.7,1.6-1.6v-1.8
		c2.5-0.7,4.3-3,4.3-5.7C28.4,13.6,25.7,10.9,22.4,10.9L22.4,10.9z M22.4,10.9"/>
</g>
</svg>
