<svg xmlns="http://www.w3.org/2000/svg" viewBox="0 0 76.97 117.05"><defs><style>.cls-1{fill:#9b005d;}</style></defs><title>Asset 27</title><g id="Layer_2" data-name="Layer 2"><g id="Layer_1-2" data-name="Layer 1"><path class="cls-1" d="M38.49,0A38.53,38.53,0,0,0,0,38.48c0,8.59,6,23.63,17.73,44.7,8.53,15.29,17,28.18,17.37,28.72l3.39,5.14,3.39-5.14c.35-.54,8.77-13.32,17.37-28.72C71,62.11,77,47.07,77,38.48A38.53,38.53,0,0,0,38.49,0Zm0,56.52A18.32,18.32,0,1,1,56.8,38.2,18.34,18.34,0,0,1,38.49,56.52Z"/></g></g></svg>