<?xml version="1.0" encoding="utf-8"?>
<!-- Generator: Adobe Illustrator 21.0.2, SVG Export Plug-In . SVG Version: 6.00 Build 0)  -->
<svg version="1.1" id="Layer_1" xmlns="http://www.w3.org/2000/svg" xmlns:xlink="http://www.w3.org/1999/xlink" x="0px" y="0px"
	 viewBox="0 0 89.6 77.6" style="enable-background:new 0 0 89.6 77.6;" xml:space="preserve" width="89.6px" height="77.6px">
<style type="text/css">
	.st0{fill:none;stroke:#FFFFFF;stroke-width:2.9223;stroke-miterlimit:10;}
</style>
<path class="st0" d="M47.4,62.2c3.4-0.9,6.6-2.2,9.6-4c3-1.8,5.6-3.8,7.9-6.1c2.2-2.3,4-4.8,5.3-7.4c1.3-2.7,2-5.4,2-8.2
	c0-1.6-0.3-3.1-1-4.3c-0.7-1.3-1.5-1.9-2.5-1.9c-0.9,0-1.7,0.2-2.3,0.6c-0.7,0.4-1.3,0.8-2,1.2c-0.7,0.4-1.4,0.8-2.3,1.2
	c-0.9,0.4-2,0.6-3.3,0.6c-3.1,0-5.8-1.2-8-3.7c-2.2-2.4-3.3-5.5-3.3-9.2c0-3.8,1.5-7.1,4.5-9.7c3-2.7,6.7-4,11-4
	c2.8,0,5.4,0.6,7.9,1.9c2.4,1.3,4.5,2.9,6.3,5.1c1.8,2.1,3.2,4.6,4.2,7.5c1,2.9,1.6,5.9,1.6,9.2c0,5-1,9.7-2.9,14.1
	c-1.9,4.4-4.5,8.1-7.7,11.3c-3.2,3.2-7,5.8-11.3,7.7c-4.3,2-8.8,3.1-13.5,3.4V62.2z M6.5,62.2c6.9-1.9,12.8-5.3,17.5-10.1
	c4.7-4.8,7.1-10,7.1-15.6c0-1.6-0.3-3.1-0.9-4.3c-0.6-1.3-1.4-1.9-2.4-1.9c-0.9,0-1.7,0.2-2.3,0.6c-0.7,0.4-1.3,0.8-2,1.2
	c-0.7,0.4-1.4,0.8-2.3,1.2c-0.9,0.4-2.1,0.6-3.5,0.6c-2.9,0-5.5-1.2-7.7-3.7c-2.2-2.4-3.3-5.5-3.3-9.2c0-3.8,1.5-7.1,4.5-9.7
	c3-2.7,6.7-4,11-4c2.8,0,5.4,0.6,7.9,1.9c2.4,1.3,4.5,2.9,6.3,5.1c1.8,2.1,3.2,4.6,4.2,7.5c1,2.9,1.6,5.9,1.6,9.2
	c0,5-1,9.7-2.9,14.1c-1.9,4.4-4.5,8.1-7.7,11.3C28,59.5,24.2,62,20,64c-4.3,2-8.8,3.1-13.5,3.4V62.2z"/>
</svg>
